<?xml version="1.0" encoding="UTF-8"?>
<svg width="256" height="256" viewBox="0 0 256 256" xmlns="http://www.w3.org/2000/svg">
  <title>mamatch - 7-ball honeycomb falling</title>
  <defs>
    <!-- Soft shadow -->
    <filter id="softShadow" x="-50%" y="-50%" width="200%" height="200%">
      <feDropShadow dx="0" dy="3" stdDeviation="5" flood-color="#0f172a" flood-opacity="0.18"/>
    </filter>

    <!-- Color gradients -->
    <linearGradient id="cBlue" x1="0" y1="0" x2="1" y2="1">
      <stop offset="0%" stop-color="#7FB1FF"/><stop offset="100%" stop-color="#4E82FF"/>
    </linearGradient>
    <linearGradient id="cPink" x1="0" y1="0" x2="1" y2="1">
      <stop offset="0%" stop-color="#FFA3BF"/><stop offset="100%" stop-color="#FF5B8C"/>
    </linearGradient>
    <linearGradient id="cYellow" x1="0" y1="0" x2="1" y2="1">
      <stop offset="0%" stop-color="#FFE794"/><stop offset="100%" stop-color="#FFC83D"/>
    </linearGradient>
    <linearGradient id="cMint" x1="0" y1="0" x2="1" y2="1">
      <stop offset="0%" stop-color="#8FF3CC"/><stop offset="100%" stop-color="#34D399"/>
    </linearGradient>
    <linearGradient id="cViolet" x1="0" y1="0" x2="1" y2="1">
      <stop offset="0%" stop-color="#C4B5FD"/><stop offset="100%" stop-color="#8B5CF6"/>
    </linearGradient>
    <linearGradient id="cAmber" x1="0" y1="0" x2="1" y2="1">
      <stop offset="0%" stop-color="#FFD58A"/><stop offset="100%" stop-color="#F59E0B"/>
    </linearGradient>
    <linearGradient id="cCyan" x1="0" y1="0" x2="1" y2="1">
      <stop offset="0%" stop-color="#67E8F9"/><stop offset="100%" stop-color="#22D3EE"/>
    </linearGradient>

    <!-- Gloss highlight -->
    <radialGradient id="gloss" cx="32%" cy="28%" r="60%">
      <stop offset="0%" stop-color="#fff" stop-opacity="0.55"/>
      <stop offset="60%" stop-color="#fff" stop-opacity="0"/>
      <stop offset="100%" stop-color="#fff" stop-opacity="0"/>
    </radialGradient>

    <!-- Trail gradient (fade out upward) -->
    <linearGradient id="trailFade" x1="0" y1="0" x2="0" y2="1">
      <stop offset="0%" stop-color="#0F172A" stop-opacity="0"/>
      <stop offset="100%" stop-color="#0F172A" stop-opacity="0.12"/>
    </linearGradient>
  </defs>

  <!-- Background (remove if you need transparent) -->
  <rect width="256" height="256" rx="28" fill="#ffffff"/>

  <!-- Trails (placed behind balls) -->
  <g>
    <!-- Each trail: thin rounded rect, slightly rotated, fading upward -->
    <g transform="translate(128,76) rotate(-2)">
      <rect x="-3" y="-36" width="6" height="40" rx="3" fill="url(#trailFade)"/>
    </g>
    <g transform="translate(170,92) rotate(3)">
      <rect x="-3" y="-34" width="6" height="36" rx="3" fill="url(#trailFade)"/>
    </g>
    <g transform="translate(86,92) rotate(-4)">
      <rect x="-3" y="-30" width="6" height="32" rx="3" fill="url(#trailFade)"/>
    </g>
    <g transform="translate(170,152) rotate(1)">
      <rect x="-3" y="-24" width="6" height="26" rx="3" fill="url(#trailFade)"/>
    </g>
    <g transform="translate(86,152) rotate(-1)">
      <rect x="-3" y="-20" width="6" height="22" rx="3" fill="url(#trailFade)"/>
    </g>
  </g>

  <!-- Honeycomb balls -->
  <g filter="url(#softShadow)">
    <!-- center -->
    <g transform="translate(128,132)">
      <circle cx="0" cy="0" r="26" fill="url(#cYellow)"/>
      <circle cx="-7" cy="-9" r="14" fill="url(#gloss)"/>
    </g>

    <!-- top slightly higher to suggest descent -->
    <g transform="translate(128,78)">
      <circle cx="0" cy="0" r="24" fill="url(#cBlue)"/>
      <circle cx="-6" cy="-8" r="12" fill="url(#gloss)"/>
    </g>

    <!-- upper-right -->
    <g transform="translate(170,98)">
      <circle cx="0" cy="0" r="24" fill="url(#cPink)"/>
      <circle cx="-6" cy="-8" r="12" fill="url(#gloss)"/>
    </g>

    <!-- lower-right -->
    <g transform="translate(170,154)">
      <circle cx="0" cy="0" r="24" fill="url(#cMint)"/>
      <circle cx="-6" cy="-8" r="12" fill="url(#gloss)"/>
    </g>

    <!-- bottom -->
    <g transform="translate(128,176)">
      <circle cx="0" cy="0" r="24" fill="url(#cViolet)"/>
      <circle cx="-6" cy="-8" r="12" fill="url(#gloss)"/>
    </g>

    <!-- lower-left -->
    <g transform="translate(86,154)">
      <circle cx="0" cy="0" r="24" fill="url(#cAmber)"/>
      <circle cx="-6" cy="-8" r="12" fill="url(#gloss)"/>
    </g>

    <!-- upper-left -->
    <g transform="translate(86,98)">
      <circle cx="0" cy="0" r="24" fill="url(#cCyan)"/>
      <circle cx="-6" cy="-8" r="12" fill="url(#gloss)"/>
    </g>
  </g>

  <!-- Subtle landing spark under the center to add motion implication -->
  <g transform="translate(128,196)" opacity="0.15">
    <ellipse cx="0" cy="0" rx="28" ry="6" fill="#0F172A"/>
  </g>
</svg>
